# xmcd
#
# Track frame offsets: 
#        150
#        16379
#        31837
#        45242
#        64444
#        83438
#        97350
#        114841
#        132313
#        148979
#        167545
#        189377
#
# Disc length: 2758 seconds
#
# Revision: 0
# Processed by: cddbd v1.5.2PL0 Copyright (c) Steve Scherf et al.
# Submitted via: ExactAudioCopy v1.0b1
#
DISCID=9b0ac40c
DTITLE=Heart  - Red Velvet Car (2010){Expanded Edition)   FLAC
DYEAR=1900
DGENRE=
TTITLE0=There You Go
TTITLE1=Wtf
TTITLE2=Red Velvet Car
TTITLE3=Queen City
TTITLE4=Hey You
TTITLE5=Wheels
TTITLE6=Safronia's Mark
TTITLE7=Death Valley
TTITLE8=Sunflower
TTITLE9=Sand
TTITLE10=Closer To The Sun
TTITLE11=In The Cool
EXTD=
EXTT0=
EXTT1=
EXTT2=
EXTT3=
EXTT4=
EXTT5=
EXTT6=
EXTT7=
EXTT8=
EXTT9=
EXTT10=
EXTT11=
PLAYORDER=
